PathFileType	4	(X/Y/Z)	C:/Users/beibeiliu/ov580/test_trc/User3\sequence.32_training_dense_left.trc
DataRate	CameraRate	NumFrames	NumMarkers	Units	OrigDataRate	OrigDataStartFrame	OrigNumFrames
120	120	10	19	mm	120	29	85
Frame#	Time	ThumbCMC			ThumbMCP			ThumbIP			ThumbTip			IndexMCP			IndexPIP			IndexTip			MiddleMCP			MiddlePIP			MiddleTip			RingMCP			RingPIP			RingTip			PinkyMCP			PinkyPIP			PinkyTip			BackHand1			BackHand2			BackHand3	
		X0	Y0	Z0	X1	Y1	Z1	X2	Y2	Z2	X3	Y3	Z3	X4	Y4	Z4	X5	Y5	Z5	X6	Y6	Z6	X7	Y7	Z7	X8	Y8	Z8	X9	Y9	Z9	X10	Y10	Z10	X11	Y11	Z11	X12	Y12	Z12	X13	Y13	Z13	X14	Y14	Z14	X15	Y15	Z15	X16	Y16	Z16	X17	Y17	Z17	X18	Y18	Z18	
28	0.233333	-214.28	31.8068	2.4705	-213.59	40.558	-24.0795	-220.211	53.8795	-51.9967	-229.119	49.5028	-74.9818	-276.102	44.4917	-41.7718	-272.417	47.0365	-73.3372	-238.221	33.2152	-75.8638	-278.335	26.0342	-50.9309	-258.717	22.2523	-80.565	-231.018	10.1318	-60.7757	-273.728	3.47173	-55.5426	-248.824	0.699827	-73.8767	-226.846	-2.56247	-51.6996	-270.436	-16.3291	-48.0142	-247.426	-17.129	-66.6253	-223.41	-17.0602	-48.4576	-270.526	-8.64748	2.22426	-247.858	-18.7055	28.8707	-248.473	16.9977	19.2964	
29	0.241667	-199.147	27.4303	9.62685	-198.884	44.0154	-17.6796	-197.433	61.4077	-43.4274	-212.681	58.4251	-68.5146	-257.233	64.0248	-30.1069	-252.735	69.7227	-63.8005	-225.524	46.6542	-65.8054	-269.181	46.4174	-44.7743	-250.938	37.5982	-71.4644	-224.752	15.9413	-47.8687	-268.99	26.2604	-45.759	-249.14	13.9409	-64.946	-230.029	-0.416307	-42.7901	-271.378	7.76303	-40.0408	-251.249	-1.07564	-59.9014	-229.896	-10.6664	-41.2994	-262.224	12.2607	13.0674	-247.96	-5.92576	31.278	-235.168	27.2275	25.9058	
30	0.25	-195.636	29.5785	13.0718	-187.263	51.7775	-11.1088	-192.239	61.9574	-35.2551	-209.738	61.1217	-58.2215	-246.032	76.2379	-25.5476	-244.155	74.5289	-55.5544	-219.013	46.4033	-55.385	-259.348	53.4826	-34.7564	-243.12	42.4545	-63.7938	-222.113	19.5555	-42.3165	-262.902	35.0266	-40.2494	-243.232	17.1145	-57.022	-223.075	8.77822	-32.7478	-267.04	15.8042	-36.3392	-249.087	5.47352	-52.5109	-225.39	-8.06761	-31.9014	-261.775	17.8246	18.3376	-243.612	-4.20517	36.7749	-228.964	29.5933	31.0885	
31	0.258333	-188.998	28.9563	16.9942	-181.501	51.3433	-9.15013	-188.91	64.0942	-31.4715	-206.103	66.2273	-55.8214	-244.9	74.5506	-20.5094	-237.765	76.0447	-50.5549	-212.42	52.1594	-46.9873	-254.2	59.0822	-32.9204	-236.759	46.5523	-56.7754	-213.649	25.1836	-32.4522	-260.384	35.3169	-32.2901	-241.513	24.843	-51.7058	-219.836	11.9582	-27.3517	-266.183	16.5561	-29.0941	-243.353	6.87509	-46.7235	-224.496	-1.62525	-28.1676	-255.722	20.7554	24.2399	-236.856	-2.019	40.6045	-220.017	33.5853	33.9253	
32	0.266667	-186.804	41.1116	30.2365	-179.874	63.0299	8.06676	-183.697	82.2401	-15.8051	-204.6	82.9147	-35.5291	-236.982	91.4851	4.56043	-233.246	94.7659	-29.4104	-209.401	71.0658	-27.9325	-251.891	76.8239	-10.1154	-236.523	72.0327	-39.8107	-212.149	47.3977	-19.2517	-256.737	59.5501	-15.2341	-240.319	48.9662	-38.6494	-218.164	31.9432	-19.0483	-262.864	36.559	-18.3613	-238.752	33.6768	-32.4303	-220.729	20.225	-10.4999	-254.639	33.3578	36.466	-235.76	7.75483	50.0672	-221.462	38.3181	47.7332	
33	0.275	-183.473	67.9009	52.1999	-176.35	95.1474	32.4755	-181.878	118.787	9.93788	-195.314	122.285	-8.66914	-233.735	123.511	30.014	-226.289	137.043	0.369377	-203.968	112.366	-6.54039	-246.627	118.604	14.2735	-233.135	120.957	-14.0795	-210.262	90.4452	-8.43545	-251.966	100.663	3.13648	-236.81	97.0294	-20.7159	-214.17	72.355	-9.80012	-256.683	79.3596	-7.64134	-232.762	74.8486	-17.4095	-220.523	53.2998	-0.388903	-251.594	62.4818	49.2565	-240.163	35.8428	57.4543	-223.638	64.2109	65.4153	
34	0.283333	-182.626	86.6836	38.8465	-169.818	111.319	18.845	-172.104	131.945	-2.11716	-183.945	142.072	-23.7617	-223.042	147.28	16.0019	-215.76	162.46	-15.752	-200.624	142.251	-29.5018	-241.833	144.972	1.26989	-230.908	149.544	-29.6642	-208.802	116.206	-31.8468	-251.575	122.858	-10.9667	-234.345	126.192	-38.7213	-212.795	99.35	-35.8927	-254.121	97.4805	-19.3505	-229.167	93.3272	-32.951	-226.368	78.7013	-6.36362	-248.083	85.8785	33.106	-238.588	56.2045	45.2382	-222.019	87.5092	49.6156	
35	0.291667	-171.727	81.4684	-15.4521	-164.565	97.2238	-43.0032	-158.049	110.667	-63.3556	-161.779	118.638	-88.4435	-208.744	138.049	-55.1434	-202.666	149.564	-88.7229	-194.311	127.626	-104.742	-236.951	132.104	-63.9907	-229.942	136.992	-95.8664	-210.466	105.679	-107.883	-248.235	110.797	-66.2977	-242.594	111.059	-98.8101	-222.496	87.9467	-104.413	-252.576	85.098	-72.5325	-233.873	72.6546	-78.4343	-244.173	76.7641	-53.1178	-241.392	88.6337	-19.7373	-234.19	67.6354	3.84237	-209.277	91.7609	-5.47817	
36	0.3	-166.397	57.8279	-67.5568	-150.044	54.8448	-90.2345	-137.206	57.8638	-118.797	-131.823	53.8494	-137.997	-196.391	84.2241	-126.369	-198.07	85.2555	-162.246	-189.786	64.0739	-184.437	-224.744	80.6171	-125.298	-230.871	79.2237	-160.538	-226.354	45.0872	-180.218	-243.204	66.168	-119.334	-248.252	62.3653	-146.123	-244.652	33.6132	-163.329	-247.598	40.0296	-106.153	-250.517	37.7743	-121.801	-257.694	46.9464	-121	-228.142	68.0628	-70.815	-223.689	63.8404	-43.9869	-198.549	75.7546	-63.2888	
37	0.308333	-155.145	29.667	-73.9137	-139.663	17.0373	-98.1046	-121.005	8.77239	-117.839	-111.894	-1.51433	-136.675	-187.71	30.5262	-147.103	-182.319	23.9874	-176.348	-185.288	10.4445	-201.827	-209.35	30.5762	-145.906	-217.218	18.8299	-176.632	-218.407	-2.15368	-200.196	-230.657	22.8724	-134.519	-238.84	13.1711	-155.869	-243.576	-8.48206	-175.789	-244.277	9.67912	-115.566	-251.607	3.96836	-125.49	-258.65	9.46417	-146.334	-217.77	40.5286	-87.5249	-211.721	49.0788	-55.9301	-186.659	48.5589	-84.8364	
